<svg width="42" height="42" viewBox="0 0 42 42" fill="none" xmlns="http://www.w3.org/2000/svg">
<path d="M17.5 18.0833C17.5 18.7728 17.3642 19.4555 17.1004 20.0924C16.8365 20.7294 16.4498 21.3081 15.9623 21.7956C15.4748 22.2831 14.896 22.6699 14.2591 22.9337C13.6221 23.1975 12.9394 23.3333 12.25 23.3333C11.5606 23.3333 10.8779 23.1975 10.2409 22.9337C9.60395 22.6699 9.0252 22.2831 8.53769 21.7956C8.05018 21.3081 7.66347 20.7294 7.39963 20.0924C7.13579 19.4555 7 18.7728 7 18.0833C7 16.6909 7.55312 15.3556 8.53769 14.371C9.52226 13.3865 10.8576 12.8333 12.25 12.8333C13.6424 12.8333 14.9777 13.3865 15.9623 14.371C16.9469 15.3556 17.5 16.6909 17.5 18.0833ZM14.5833 18.0833C14.5833 17.4645 14.3375 16.871 13.8999 16.4334C13.4623 15.9958 12.8688 15.75 12.25 15.75C11.6312 15.75 11.0377 15.9958 10.6001 16.4334C10.1625 16.871 9.91667 17.4645 9.91667 18.0833C9.91667 18.7022 10.1625 19.2957 10.6001 19.7332C11.0377 20.1708 11.6312 20.4167 12.25 20.4167C12.8688 20.4167 13.4623 20.1708 13.8999 19.7332C14.3375 19.2957 14.5833 18.7022 14.5833 18.0833ZM12.25 36.1667C13.6424 36.1667 14.9777 35.6135 15.9623 34.629C16.9469 33.6444 17.5 32.3091 17.5 30.9167C17.5 29.5243 16.9469 28.1889 15.9623 27.2044C14.9777 26.2198 13.6424 25.6667 12.25 25.6667C10.8576 25.6667 9.52226 26.2198 8.53769 27.2044C7.55312 28.1889 7 29.5243 7 30.9167C7 32.3091 7.55312 33.6444 8.53769 34.629C9.52226 35.6135 10.8576 36.1667 12.25 36.1667ZM12.25 33.25C11.6312 33.25 11.0377 33.0042 10.6001 32.5666C10.1625 32.129 9.91667 31.5355 9.91667 30.9167C9.91667 30.2978 10.1625 29.7043 10.6001 29.2668C11.0377 28.8292 11.6312 28.5833 12.25 28.5833C12.8688 28.5833 13.4623 28.8292 13.8999 29.2668C14.3375 29.7043 14.5833 30.2978 14.5833 30.9167C14.5833 31.5355 14.3375 32.129 13.8999 32.5666C13.4623 33.0042 12.8688 33.25 12.25 33.25ZM8.45833 7C8.07156 7 7.70063 7.15365 7.42714 7.42714C7.15365 7.70063 7 8.07156 7 8.45833C7 8.84511 7.15365 9.21604 7.42714 9.48953C7.70063 9.76302 8.07156 9.91667 8.45833 9.91667H33.5417C33.9284 9.91667 34.2994 9.76302 34.5729 9.48953C34.8464 9.21604 35 8.84511 35 8.45833C35 8.07156 34.8464 7.70063 34.5729 7.42714C34.2994 7.15365 33.9284 7 33.5417 7H8.45833ZM19.8333 18.375C19.8333 17.57 20.4867 16.9167 21.2917 16.9167H33.5417C33.9284 16.9167 34.2994 17.0703 34.5729 17.3438C34.8464 17.6173 35 17.9882 35 18.375C35 18.7618 34.8464 19.1327 34.5729 19.4062C34.2994 19.6797 33.9284 19.8333 33.5417 19.8333H21.2917C20.4867 19.8333 19.8333 19.18 19.8333 18.375ZM21.2917 29.1667C20.9049 29.1667 20.534 29.3203 20.2605 29.5938C19.987 29.8673 19.8333 30.2382 19.8333 30.625C19.8333 31.0118 19.987 31.3827 20.2605 31.6562C20.534 31.9297 20.9049 32.0833 21.2917 32.0833H33.5417C33.9284 32.0833 34.2994 31.9297 34.5729 31.6562C34.8464 31.3827 35 31.0118 35 30.625C35 30.2382 34.8464 29.8673 34.5729 29.5938C34.2994 29.3203 33.9284 29.1667 33.5417 29.1667H21.2917ZM7.29167 0C5.3578 0 3.50313 0.768227 2.13568 2.13568C0.768227 3.50313 0 5.3578 0 7.29167V34.7083C0 36.6422 0.768227 38.4969 2.13568 39.8643C3.50313 41.2318 5.3578 42 7.29167 42H34.7083C36.6422 42 38.4969 41.2318 39.8643 39.8643C41.2318 38.4969 42 36.6422 42 34.7083V7.29167C42 5.3578 41.2318 3.50313 39.8643 2.13568C38.4969 0.768227 36.6422 0 34.7083 0H7.29167ZM2.91667 7.29167C2.91667 6.13134 3.3776 5.01855 4.19807 4.19807C5.01855 3.3776 6.13134 2.91667 7.29167 2.91667H34.7083C35.8687 2.91667 36.9815 3.3776 37.8019 4.19807C38.6224 5.01855 39.0833 6.13134 39.0833 7.29167V34.7083C39.0833 35.8687 38.6224 36.9815 37.8019 37.8019C36.9815 38.6224 35.8687 39.0833 34.7083 39.0833H7.29167C6.13134 39.0833 5.01855 38.6224 4.19807 37.8019C3.3776 36.9815 2.91667 35.8687 2.91667 34.7083V7.29167Z" fill="#2EBE68"/>
</svg>
