<svg width="58" height="58" viewBox="0 0 58 58" fill="none" xmlns="http://www.w3.org/2000/svg">
<path d="M18.937 11.6232C20.2287 9.37308 22.2376 7.62099 24.6423 6.64699C27.0471 5.67299 29.709 5.53331 32.2026 6.25029C34.6961 6.96727 36.8772 8.4995 38.3974 10.6021C39.9176 12.7046 40.689 15.2561 40.5883 17.8487C40.4876 20.4413 39.5206 22.9253 37.842 24.9037C36.1634 26.882 33.8699 28.2405 31.3283 28.7619C28.7867 29.2833 26.1437 28.9376 23.8216 27.7801C21.4996 26.6225 19.6327 24.7199 18.5194 22.3764C17.7755 22.9206 16.8774 23.2131 15.9558 23.2116H14.5058V23.9511C14.5058 24.5021 14.7146 25.0038 15.0568 25.3837C15.3492 25.0531 15.7354 24.8195 16.1639 24.7139C16.5924 24.6083 17.043 24.6357 17.4555 24.7925C17.868 24.9494 18.223 25.2281 18.4732 25.5917C18.7233 25.9554 18.8568 26.3865 18.8558 26.8279C18.8555 27.131 18.792 27.4307 18.6691 27.7078C18.5463 27.9849 18.3669 28.2333 18.1424 28.437C17.918 28.6406 17.6535 28.7952 17.3658 28.8906C17.0781 28.9861 16.7737 29.0204 16.472 28.9913C15.1658 28.9454 13.9285 28.3944 13.0208 27.4541C12.113 26.5139 11.6057 25.258 11.6058 23.9511V13.0703C11.6058 12.6857 11.7585 12.3169 12.0304 12.045C12.3024 11.7731 12.6712 11.6203 13.0558 11.6203H18.8558L18.937 11.6232ZM20.3058 17.7451C20.3961 20.0208 21.3752 22.1703 23.0328 23.7321C24.6905 25.2939 26.8944 26.1435 29.1715 26.0983C31.4485 26.0531 33.6171 25.1168 35.2115 23.4905C36.8058 21.8642 37.6989 19.6775 37.6989 17.4C37.6989 15.1225 36.8058 12.9358 35.2115 11.3095C33.6171 9.68316 31.4485 8.74689 29.1715 8.70171C26.8944 8.65653 24.6905 9.50605 23.0328 11.0679C21.3752 12.6297 20.3961 14.7792 20.3058 17.0549V17.7451ZM17.4058 16.9998V14.5203H14.5058V20.3116H15.9558C16.3403 20.3116 16.7091 20.1588 16.9811 19.8869C17.253 19.615 17.4058 19.2462 17.4058 18.8616V17.8002C17.3967 17.5335 17.3967 17.2665 17.4058 16.9998ZM8.69995 37.7C8.69995 34.4723 11.3187 31.9 14.5261 31.9H43.5C45.0382 31.9 46.5135 32.5111 47.6012 33.5988C48.6889 34.6865 49.3 36.1617 49.3 37.7C49.3 42.6039 46.8843 46.3014 43.1085 48.7113C39.3907 51.0806 34.3795 52.2 29 52.2C23.6205 52.2 18.6093 51.0806 14.8915 48.7113C11.1157 46.3043 8.69995 42.601 8.69995 37.7ZM14.5261 34.8C12.8992 34.8 11.6 36.0963 11.6 37.7C11.6 41.4961 13.4038 44.3236 16.4517 46.2637C19.5547 48.2444 23.9685 49.3 29 49.3C34.0315 49.3 38.4453 48.2444 41.5483 46.2637C44.5933 44.3207 46.4 41.499 46.4 37.7C46.4 36.9309 46.0944 36.1932 45.5506 35.6494C45.0067 35.1055 44.2691 34.8 43.5 34.8H14.5261Z" fill="#4510DB"/>
</svg>
