<svg width="16" height="16" viewBox="0 0 16 16" fill="none" xmlns="http://www.w3.org/2000/svg">
<path d="M10.307 2.105C10.2331 2.04751 10.1445 2.01192 10.0514 2.0023C9.95825 1.99267 9.86429 2.0094 9.78019 2.05056C9.69609 2.09172 9.62523 2.15568 9.5757 2.23513C9.52616 2.31459 9.49994 2.40636 9.5 2.5V4.493C8.92553 4.51707 8.35865 4.63322 7.821 4.837C6.98738 5.1521 6.26072 5.69806 5.726 6.411C5.103 7.237 4.645 8.383 4.502 9.955C4.49253 10.0574 4.5149 10.1603 4.56605 10.2496C4.6172 10.3389 4.69465 10.4102 4.78782 10.4538C4.881 10.4975 4.98537 10.5113 5.08669 10.4934C5.18802 10.4756 5.28136 10.4269 5.354 10.354C6.542 9.164 7.723 8.578 8.596 8.287C8.956 8.167 9.264 8.097 9.5 8.057V10C9.49997 10.0964 9.5278 10.1907 9.58014 10.2716C9.63248 10.3526 9.70709 10.4167 9.795 10.4562C9.88291 10.4957 9.98036 10.509 10.0756 10.4944C10.1709 10.4798 10.2599 10.438 10.332 10.374L14.832 6.374C14.887 6.32526 14.9305 6.26502 14.9596 6.19755C14.9886 6.13008 15.0024 6.05704 15 5.98363C14.9976 5.91021 14.9791 5.83822 14.9457 5.77278C14.9124 5.70734 14.865 5.65005 14.807 5.605L10.307 2.105ZM9.943 5.497H9.946C10.0157 5.50426 10.0862 5.49683 10.1529 5.4752C10.2196 5.45356 10.281 5.41819 10.3332 5.37137C10.3854 5.32454 10.4272 5.26731 10.4559 5.20335C10.4847 5.13938 10.4997 5.07011 10.5 5V3.522L13.719 6.026L10.5 8.886V7.5C10.5 7.36739 10.4473 7.24021 10.3536 7.14644C10.2598 7.05267 10.1326 7 10 7H9.955C9.8024 7.00703 9.65022 7.02138 9.499 7.043C9.199 7.087 8.779 7.171 8.279 7.338C7.3616 7.64959 6.50127 8.10897 5.732 8.698C5.926 7.982 6.208 7.434 6.525 7.013C6.94677 6.4499 7.52062 6.019 8.179 5.771C8.70296 5.57311 9.26005 5.47771 9.82 5.49C9.865 5.491 9.899 5.493 9.92 5.495L9.942 5.497H9.943ZM4.5 3C3.83696 3 3.20107 3.26339 2.73223 3.73223C2.26339 4.20107 2 4.83696 2 5.5V11.5C2 12.163 2.26339 12.7989 2.73223 13.2678C3.20107 13.7366 3.83696 14 4.5 14H10.5C11.163 14 11.7989 13.7366 12.2678 13.2678C12.7366 12.7989 13 12.163 13 11.5V10.5C13 10.3674 12.9473 10.2402 12.8536 10.1464C12.7598 10.0527 12.6326 10 12.5 10C12.3674 10 12.2402 10.0527 12.1464 10.1464C12.0527 10.2402 12 10.3674 12 10.5V11.5C12 11.8978 11.842 12.2794 11.5607 12.5607C11.2794 12.842 10.8978 13 10.5 13H4.5C4.10218 13 3.72064 12.842 3.43934 12.5607C3.15804 12.2794 3 11.8978 3 11.5V5.5C3 5.10217 3.15804 4.72064 3.43934 4.43934C3.72064 4.15803 4.10218 4 4.5 4H6.5C6.63261 4 6.75979 3.94732 6.85355 3.85355C6.94732 3.75978 7 3.6326 7 3.5C7 3.36739 6.94732 3.24021 6.85355 3.14644C6.75979 3.05267 6.63261 3 6.5 3H4.5Z" fill="#024E77"/>
</svg>
