<svg width="70" height="70" viewBox="0 0 70 70" fill="none" xmlns="http://www.w3.org/2000/svg">
<circle opacity="0.1" cx="35" cy="35" r="35" fill="#75EAA4"/>
<path d="M35.5 35.5C39.5271 35.5 42.7916 32.2354 42.7916 28.2083C42.7916 24.1812 39.5271 20.9167 35.5 20.9167C31.4729 20.9167 28.2083 24.1812 28.2083 28.2083C28.2083 32.2354 31.4729 35.5 35.5 35.5Z" stroke="#242424" stroke-width="1.5" stroke-linecap="round" stroke-linejoin="round"/>
<path d="M22.9729 50.0833C22.9729 44.4396 28.5875 39.875 35.5 39.875C36.9 39.875 38.2562 40.0646 39.525 40.4146" stroke="#242424" stroke-width="1.5" stroke-linecap="round" stroke-linejoin="round"/>
<path d="M50.0834 44.25C50.0834 44.7167 50.025 45.1687 49.9084 45.6062C49.7771 46.1896 49.5438 46.7583 49.2375 47.2542C48.2313 48.9458 46.3792 50.0833 44.25 50.0833C42.7479 50.0833 41.3917 49.5145 40.3708 48.5812C39.9333 48.202 39.5542 47.75 39.2625 47.2542C38.7229 46.3792 38.4167 45.3437 38.4167 44.25C38.4167 42.675 39.0438 41.2313 40.0646 40.1813C41.1292 39.0875 42.6167 38.4167 44.25 38.4167C45.9709 38.4167 47.5313 39.1604 48.5813 40.3563C49.5146 41.3917 50.0834 42.7625 50.0834 44.25Z" stroke="#242424" stroke-width="1.5" stroke-miterlimit="10" stroke-linecap="round" stroke-linejoin="round"/>
<path d="M46.4229 44.2208H42.0771" stroke="#242424" stroke-width="1.5" stroke-miterlimit="10" stroke-linecap="round" stroke-linejoin="round"/>
<path d="M44.25 42.0917V46.4521" stroke="#242424" stroke-width="1.5" stroke-miterlimit="10" stroke-linecap="round" stroke-linejoin="round"/>
</svg>
