<svg width="20" height="20" viewBox="0 0 20 20" fill="none" xmlns="http://www.w3.org/2000/svg">
<path d="M18.3083 15.275C18.3083 15.575 18.2417 15.8834 18.1 16.1834C17.9583 16.4834 17.775 16.7667 17.5333 17.0334C17.125 17.4834 16.675 17.8084 16.1667 18.0167C15.6667 18.225 15.125 18.3334 14.5417 18.3334C13.6917 18.3334 12.7833 18.1334 11.825 17.725C10.8667 17.3167 9.90832 16.7667 8.95832 16.075C7.99999 15.375 7.09166 14.6 6.22499 13.7417C5.36666 12.875 4.59166 11.9667 3.89999 11.0167C3.21666 10.0667 2.66666 9.11669 2.26666 8.17502C1.86666 7.22502 1.66666 6.31669 1.66666 5.45002C1.66666 4.88335 1.76666 4.34169 1.96666 3.84169C2.16666 3.33335 2.48332 2.86669 2.92499 2.45002C3.45832 1.92502 4.04166 1.66669 4.65832 1.66669C4.89166 1.66669 5.12499 1.71669 5.33332 1.81669C5.54999 1.91669 5.74166 2.06669 5.89166 2.28335L7.82499 5.00835C7.97499 5.21669 8.08332 5.40835 8.15832 5.59169C8.23332 5.76669 8.27499 5.94169 8.27499 6.10002C8.27499 6.30002 8.21666 6.50002 8.09999 6.69169C7.99166 6.88335 7.83332 7.08335 7.63332 7.28335L6.99999 7.94169C6.90832 8.03335 6.86666 8.14169 6.86666 8.27502C6.86666 8.34169 6.87499 8.40002 6.89166 8.46669C6.91666 8.53335 6.94166 8.58335 6.95832 8.63335C7.10832 8.90835 7.36666 9.26669 7.73332 9.70002C8.10832 10.1334 8.50832 10.575 8.94166 11.0167C9.39166 11.4584 9.82499 11.8667 10.2667 12.2417C10.7 12.6084 11.0583 12.8584 11.3417 13.0084C11.3833 13.025 11.4333 13.05 11.4917 13.075C11.5583 13.1 11.625 13.1084 11.7 13.1084C11.8417 13.1084 11.95 13.0584 12.0417 12.9667L12.675 12.3417C12.8833 12.1334 13.0833 11.975 13.275 11.875C13.4667 11.7584 13.6583 11.7 13.8667 11.7C14.025 11.7 14.1917 11.7334 14.375 11.8084C14.5583 11.8834 14.75 11.9917 14.9583 12.1334L17.7167 14.0917C17.9333 14.2417 18.0833 14.4167 18.175 14.625C18.2583 14.8334 18.3083 15.0417 18.3083 15.275Z" stroke="#129BE1" stroke-width="1.5" stroke-miterlimit="10"/>
<path d="M15.4167 7.50004C15.4167 7.00004 15.025 6.23337 14.4417 5.60837C13.9083 5.03337 13.2 4.58337 12.5 4.58337" stroke="#129BE1" stroke-width="1.5" stroke-linecap="round" stroke-linejoin="round"/>
<path d="M18.3333 7.50002C18.3333 4.27502 15.725 1.66669 12.5 1.66669" stroke="#129BE1" stroke-width="1.5" stroke-linecap="round" stroke-linejoin="round"/>
</svg>
