<svg width="25" height="24" viewBox="0 0 25 24" fill="none" xmlns="http://www.w3.org/2000/svg">
<path fill-rule="evenodd" clip-rule="evenodd" d="M4.30918 13.7871V13.5681C4.3413 12.9202 4.54895 12.2925 4.91071 11.7496C5.51285 11.0975 5.92505 10.2983 6.10406 9.43598C6.10406 8.7695 6.10406 8.0935 6.16228 7.42703C6.46304 4.21842 9.63563 2 12.7694 2H12.847C15.9808 2 19.1534 4.21842 19.4639 7.42703C19.5221 8.0935 19.4639 8.7695 19.5124 9.43598C19.6938 10.3003 20.1056 11.1019 20.7057 11.7591C21.0702 12.2972 21.2782 12.9227 21.3073 13.5681V13.7776C21.3289 14.648 21.0291 15.4968 20.4632 16.1674C19.7153 16.9515 18.7005 17.4393 17.6108 17.5384C14.4153 17.8812 11.1914 17.8812 7.99597 17.5384C6.90749 17.435 5.89411 16.9479 5.14356 16.1674C4.58635 15.4963 4.29059 14.6526 4.30918 13.7871Z" stroke="#11211D" stroke-width="1.5" stroke-linecap="round" stroke-linejoin="round"/>
<path d="M10.3633 20.8518C10.8626 21.4784 11.5957 21.884 12.4006 21.9787C13.2054 22.0734 14.0155 21.8495 14.6516 21.3564C14.8472 21.2106 15.0233 21.041 15.1755 20.8518" stroke="#11211D" stroke-width="1.5" stroke-linecap="round" stroke-linejoin="round"/>
</svg>
