<svg width="16" height="16" viewBox="0 0 16 16" fill="none" xmlns="http://www.w3.org/2000/svg">
<g opacity="0.5">
<path d="M14.6466 12.22C14.6466 12.46 14.5933 12.7067 14.48 12.9467C14.3666 13.1867 14.22 13.4133 14.0266 13.6267C13.7 13.9867 13.34 14.2467 12.9333 14.4133C12.5333 14.58 12.1 14.6667 11.6333 14.6667C10.9533 14.6667 10.2266 14.5067 9.45998 14.18C8.69331 13.8533 7.92665 13.4133 7.16665 12.86C6.39998 12.3 5.67331 11.68 4.97998 10.9933C4.29331 10.3 3.67331 9.57334 3.11998 8.81334C2.57331 8.05334 2.13331 7.29334 1.81331 6.54C1.49331 5.78 1.33331 5.05334 1.33331 4.36C1.33331 3.90667 1.41331 3.47334 1.57331 3.07334C1.73331 2.66667 1.98665 2.29334 2.33998 1.96C2.76665 1.54 3.23331 1.33334 3.72665 1.33334C3.91331 1.33334 4.09998 1.37334 4.26665 1.45334C4.43998 1.53334 4.59331 1.65334 4.71331 1.82667L6.25998 4.00667C6.37998 4.17334 6.46665 4.32667 6.52665 4.47334C6.58665 4.61334 6.61998 4.75334 6.61998 4.88C6.61998 5.04 6.57331 5.2 6.47998 5.35334C6.39331 5.50667 6.26665 5.66667 6.10665 5.82667L5.59998 6.35334C5.52665 6.42667 5.49331 6.51334 5.49331 6.62C5.49331 6.67334 5.49998 6.72 5.51331 6.77334C5.53331 6.82667 5.55331 6.86667 5.56665 6.90667C5.68665 7.12667 5.89331 7.41334 6.18665 7.76C6.48665 8.10667 6.80665 8.46 7.15331 8.81334C7.51331 9.16667 7.85998 9.49334 8.21331 9.79334C8.55998 10.0867 8.84665 10.2867 9.07331 10.4067C9.10665 10.42 9.14665 10.44 9.19331 10.46C9.24665 10.48 9.29998 10.4867 9.35998 10.4867C9.47331 10.4867 9.55998 10.4467 9.63331 10.3733L10.14 9.87334C10.3066 9.70667 10.4666 9.58 10.62 9.5C10.7733 9.40667 10.9266 9.36 11.0933 9.36C11.22 9.36 11.3533 9.38667 11.5 9.44667C11.6466 9.50667 11.8 9.59334 11.9666 9.70667L14.1733 11.2733C14.3466 11.3933 14.4666 11.5333 14.54 11.7C14.6066 11.8667 14.6466 12.0333 14.6466 12.22Z" stroke="#292D32" stroke-width="1.5" stroke-miterlimit="10"/>
<path d="M10.8 5.2H14M10.8 5.2V2V5.2Z" stroke="#292D32" stroke-width="1.5" stroke-linecap="round" stroke-linejoin="round"/>
</g>
</svg>
