<svg width="20" height="20" viewBox="0 0 20 20" fill="none" xmlns="http://www.w3.org/2000/svg">
<g clip-path="url(#clip0_211_1708)">
<path d="M17.1751 0.708488L17.1751 0.708487C16.5815 0.7003 15.9867 0.70214 15.3911 0.703983C15.1355 0.704774 14.8797 0.705565 14.6238 0.705565C14.3614 0.705565 14.099 0.705891 13.8366 0.706216C13.312 0.706866 12.7877 0.707516 12.2648 0.705565L12.2648 0.705565C11.0464 0.699777 10.0144 1.13616 9.15439 1.99903C7.60775 3.55094 6.06001 5.10078 4.51251 6.65038C3.48031 7.684 2.4482 8.71751 1.41659 9.75146C0.947964 10.2215 0.716415 10.7798 0.717484 11.3363C0.718554 11.8927 0.952267 12.4518 1.42243 12.9234L17.1751 0.708488ZM17.1751 0.708488C18.2834 0.722807 19.1205 1.44268 19.3067 2.53404L19.3068 2.53419M17.1751 0.708488L19.3068 2.53419M19.3324 7.72637C19.3381 8.96814 18.8959 10.0119 18.0184 10.8865L18.0184 10.8865C16.2998 12.6012 14.5838 14.3159 12.8686 16.0297C12.0107 16.887 11.153 17.7441 10.2952 18.6009L10.2952 18.6009C9.8146 19.0815 9.25329 19.3194 8.69496 19.3197C8.13664 19.3201 7.57609 19.0829 7.09697 18.6038C5.20518 16.712 3.31631 14.8202 1.42743 12.9284L1.42246 12.9235L19.3324 7.72637ZM19.3324 7.72637C19.3271 6.76751 19.3282 5.80834 19.3292 4.84937M19.3324 7.72637L19.3292 4.84937M19.3068 2.53419C19.3293 2.66385 19.3294 2.79706 19.3294 2.93242V2.93251M19.3068 2.53419L19.3294 2.93251M19.3294 2.93251C19.3306 3.57128 19.3299 4.21028 19.3292 4.84937M19.3294 2.93251L19.3292 4.84937M2.45651 12.0357L2.45654 12.0357C2.43977 12.0175 2.42219 11.9999 2.40378 11.9815L2.40347 11.9812C2.38555 11.9633 2.36683 11.9446 2.34872 11.925C2.16962 11.7411 2.07594 11.5376 2.07673 11.3303C2.07753 11.1227 2.17298 10.9198 2.3555 10.7373L2.36371 10.729C3.44961 9.64022 4.53264 8.55427 5.61859 7.46832C6.11424 6.9717 6.61049 6.47577 7.10671 5.97988C8.09908 4.98816 9.09134 3.99655 10.0785 2.99966C10.7084 2.36086 11.4559 2.05413 12.3472 2.06006C12.3472 2.06006 12.3473 2.06006 12.3473 2.06006L12.347 2.11006L2.45651 12.0357ZM2.45651 12.0357L2.4579 12.0371M2.45651 12.0357L2.4579 12.0371M2.4579 12.0371L8.0475 17.6355L8.08298 17.6003L8.0476 17.6356L8.04756 17.6355C8.25876 17.8482 8.47119 17.9619 8.69015 17.9623C8.90912 17.9627 9.1216 17.8498 9.33283 17.6386C9.97705 16.9951 10.6211 16.3516 11.2651 15.7081C13.1985 13.7764 15.1314 11.8451 17.0676 9.91545L17.0677 9.91539M2.4579 12.0371L17.0677 9.91539M17.0677 9.91539C17.6741 9.30904 17.975 8.58513 17.972 7.72885M17.0677 9.91539L17.972 7.72885M17.972 7.72885C17.972 7.72891 17.972 7.72896 17.972 7.72902H17.922L17.972 7.72885Z" fill="#242424" stroke="#F3F2F3" stroke-width="0.1"/>
<path d="M16.2743 5.90289C16.2538 7.13496 15.2559 8.09487 14.015 8.07146C12.8386 8.05097 11.8728 7.04131 11.8904 5.85021C11.905 4.64155 12.9117 3.66993 14.1204 3.69335C15.3291 3.71676 16.2948 4.70593 16.2743 5.90289ZM14.814 5.87947C14.814 5.47854 14.4833 5.14784 14.0853 5.14784C13.6814 5.14784 13.3595 5.47268 13.3566 5.87947C13.3566 6.28334 13.6814 6.61111 14.0853 6.61111C14.4862 6.60818 14.814 6.28041 14.814 5.87947Z" fill="#242424"/>
</g>
<defs>
<clipPath id="clip0_211_1708">
<rect width="19.9941" height="20" fill="white"/>
</clipPath>
</defs>
</svg>
