<svg width="34" height="34" viewBox="0 0 34 34" fill="none" xmlns="http://www.w3.org/2000/svg">
<circle opacity="0.1" cx="17" cy="17" r="17" fill="#9BA1FF"/>
<g filter="url(#filter0_d_311_1411)">
<path d="M18.3079 15.6919C18.0263 15.4114 17.699 15.1808 17.3401 15.01C17.232 15.1181 17.1464 15.2464 17.088 15.3876C17.0297 15.5289 16.9998 15.6803 17 15.8331C17 15.9573 17.0234 16.0752 17.0595 16.1878C17.2106 16.2817 17.3541 16.3878 17.483 16.5168C17.9235 16.9578 18.1667 17.5434 18.1667 18.1664C18.1667 18.7894 17.924 19.3757 17.4836 19.8167L15.7336 21.5661C14.8516 22.4481 13.3151 22.4481 12.4337 21.5661C11.9927 21.1251 11.75 20.5394 11.75 19.9164C11.75 19.2934 11.9927 18.7078 12.4331 18.2668L13.6605 17.0394C13.5549 16.646 13.501 16.2405 13.5 15.8331C13.5 15.7386 13.5076 15.6447 13.5135 15.5513C13.4615 15.5974 13.4085 15.6423 13.3583 15.6919L11.6083 17.4419C10.9474 18.1028 10.5834 18.9813 10.5834 19.9164C10.5834 20.8515 10.9474 21.73 11.6083 22.3909C12.2698 23.0524 13.1483 23.4164 14.0834 23.4164C15.0185 23.4164 15.897 23.0524 16.5585 22.3909L18.3085 20.6415C18.9688 19.98 19.3334 19.1015 19.3334 18.1664C19.3334 17.2313 18.9688 16.3528 18.3079 15.6919Z" fill="#9BA1FF"/>
<path d="M22.3918 11.6088C21.7303 10.9473 20.8518 10.5833 19.9167 10.5833C18.9817 10.5833 18.1032 10.9473 17.4417 11.6088L15.6917 13.3582C15.0313 14.0197 14.6667 14.8982 14.6667 15.8333C14.6667 16.7683 15.0307 17.6468 15.6917 18.3078C15.9733 18.5883 16.3005 18.8189 16.6594 18.9897C16.8787 18.7698 17.0001 18.4769 17.0001 18.1666C17.0001 18.0394 16.9762 17.9187 16.9382 17.8038C16.7854 17.7145 16.6442 17.6067 16.5177 17.4829C16.0767 17.0419 15.8334 16.4563 15.8334 15.8333C15.8334 15.2103 16.0761 14.624 16.5165 14.183L18.2665 12.4336C18.7075 11.9926 19.2937 11.7499 19.9167 11.7499C20.5397 11.7499 21.126 11.9926 21.567 12.4336C22.0074 12.8746 22.2501 13.4603 22.2501 14.0833C22.2501 14.7063 22.0074 15.2919 21.567 15.7329L20.3379 16.962C20.4417 17.3505 20.5001 17.7536 20.5001 18.1666C20.5001 18.2611 20.4931 18.3544 20.4878 18.4478C20.5397 18.4017 20.5928 18.3573 20.6424 18.3078L22.3924 16.5578C23.0527 15.8968 23.4167 15.0183 23.4167 14.0833C23.4167 13.1482 23.0527 12.2697 22.3918 11.6088Z" fill="#9BA1FF"/>
</g>
<defs>
<filter id="filter0_d_311_1411" x="3" y="6" width="28" height="28" filterUnits="userSpaceOnUse" color-interpolation-filters="sRGB">
<feFlood flood-opacity="0" result="BackgroundImageFix"/>
<feColorMatrix in="SourceAlpha" type="matrix" values="0 0 0 0 0 0 0 0 0 0 0 0 0 0 0 0 0 0 127 0" result="hardAlpha"/>
<feOffset dy="3"/>
<feGaussianBlur stdDeviation="3.5"/>
<feColorMatrix type="matrix" values="0 0 0 0 0.607843 0 0 0 0 0.631373 0 0 0 0 1 0 0 0 0.6 0"/>
<feBlend mode="normal" in2="BackgroundImageFix" result="effect1_dropShadow_311_1411"/>
<feBlend mode="normal" in="SourceGraphic" in2="effect1_dropShadow_311_1411" result="shape"/>
</filter>
</defs>
</svg>
