<svg width="34" height="35" viewBox="0 0 34 35" fill="none" xmlns="http://www.w3.org/2000/svg">
<circle opacity="0.1" cx="17" cy="17" r="17" fill="#4DC591"/>
<g clip-path="url(#clip0_311_1417)" filter="url(#filter0_d_311_1417)">
<path d="M19.6667 9.66675V13.6667H23.6667L19.6667 9.66675Z" fill="#4DC591"/>
<path d="M19.6667 9.66675V13.6667H23.6667" stroke="#4DC591" stroke-width="1.5" stroke-miterlimit="10" stroke-linecap="round" stroke-linejoin="round"/>
<path d="M19.9596 9.95964C19.7721 9.7721 19.5177 9.66675 19.2525 9.66675H11.3334C10.7811 9.66675 10.3334 10.1145 10.3334 10.6667V23.3334C10.3334 23.8857 10.7811 24.3334 11.3334 24.3334H22.6667C23.219 24.3334 23.6667 23.8857 23.6667 23.3334V14.081C23.6667 13.8157 23.5614 13.5614 23.3738 13.3739L19.9596 9.95964Z" stroke="#4DC591" stroke-width="1.5" stroke-miterlimit="10" stroke-linecap="round" stroke-linejoin="round"/>
<path d="M13.6667 13.6667H16.3334" stroke="#4DC591" stroke-width="1.5" stroke-miterlimit="10" stroke-linecap="round" stroke-linejoin="round"/>
<path d="M13.6667 17H20.3334" stroke="#4DC591" stroke-width="1.5" stroke-miterlimit="10" stroke-linecap="round" stroke-linejoin="round"/>
<path d="M13.6667 20.3335H20.3334" stroke="#4DC591" stroke-width="1.5" stroke-miterlimit="10" stroke-linecap="round" stroke-linejoin="round"/>
</g>
<defs>
<filter id="filter0_d_311_1417" x="2" y="5" width="30" height="30" filterUnits="userSpaceOnUse" color-interpolation-filters="sRGB">
<feFlood flood-opacity="0" result="BackgroundImageFix"/>
<feColorMatrix in="SourceAlpha" type="matrix" values="0 0 0 0 0 0 0 0 0 0 0 0 0 0 0 0 0 0 127 0" result="hardAlpha"/>
<feOffset dy="3"/>
<feGaussianBlur stdDeviation="3.5"/>
<feColorMatrix type="matrix" values="0 0 0 0 0.301961 0 0 0 0 0.772549 0 0 0 0 0.568627 0 0 0 0.6 0"/>
<feBlend mode="normal" in2="BackgroundImageFix" result="effect1_dropShadow_311_1417"/>
<feBlend mode="normal" in="SourceGraphic" in2="effect1_dropShadow_311_1417" result="shape"/>
</filter>
<clipPath id="clip0_311_1417">
<rect width="16" height="16" fill="white" transform="translate(9 9)"/>
</clipPath>
</defs>
</svg>
