<svg width="20" height="20" viewBox="0 0 20 20" fill="none" xmlns="http://www.w3.org/2000/svg">
<path d="M12.2691 12.271C11.6484 12.8916 10.8065 13.2402 9.92877 13.2402C9.05099 13.2402 8.20916 12.8916 7.58838 12.271H12.2691ZM7.44604 8.27545H7.45432H7.44604ZM12.4115 8.27545H12.4198H12.4115ZM17.3769 9.9306C17.3769 10.9087 17.1843 11.8772 16.81 12.7809C16.4357 13.6845 15.887 14.5056 15.1954 15.1973C14.5038 15.8889 13.6827 16.4375 12.7791 16.8118C11.8754 17.1861 10.9069 17.3788 9.92877 17.3788C8.95066 17.3788 7.98213 17.1861 7.07847 16.8118C6.17482 16.4375 5.35374 15.8889 4.66211 15.1973C3.97048 14.5056 3.42186 13.6845 3.04755 12.7809C2.67324 11.8772 2.48059 10.9087 2.48059 9.9306C2.48059 7.95522 3.26531 6.06075 4.66211 4.66394C6.05891 3.26714 7.95339 2.48242 9.92877 2.48242C11.9041 2.48242 13.7986 3.26714 15.1954 4.66394C16.5922 6.06075 17.3769 7.95522 17.3769 9.9306Z" stroke="#9295A3" stroke-width="1.24136" stroke-linecap="round" stroke-linejoin="round"/>
</svg>
