<svg width="18" height="18" viewBox="0 0 18 18" fill="none" xmlns="http://www.w3.org/2000/svg">
<g clip-path="url(#clip0_311_1373)">
<path d="M12.9936 18.0001C10.3567 18.0001 7.70061 18.0001 5.06367 18.0001C4.92991 17.9619 4.81526 17.9237 4.6815 17.8664C4.14647 17.5988 3.93628 17.1594 3.93628 16.5861C3.93628 11.7899 3.93628 6.99374 3.93628 2.19757C3.93628 1.93005 3.93628 1.66253 3.93628 1.39502C3.93628 0.955528 4.10825 0.573362 4.47131 0.305846C4.64329 0.191196 4.85348 0.133871 5.06367 0.0383301C7.70061 0.0383301 10.3567 0.0383301 12.9936 0.0383301C13.1274 0.0765466 13.242 0.114763 13.3758 0.172088C13.9108 0.439604 14.121 0.879094 14.121 1.45234C14.121 6.2103 14.121 10.9683 14.121 15.7262C14.121 16.032 14.121 16.3377 14.121 16.6625C14.121 17.102 13.949 17.4842 13.586 17.7517C13.3949 17.8664 13.1847 17.9237 12.9936 18.0001ZM4.92991 2.25489C4.92991 6.13387 4.92991 9.99374 4.92991 13.8536C7.66239 13.8536 10.3949 13.8536 13.1274 13.8536C13.1274 9.97464 13.1274 6.13387 13.1274 2.25489C10.3758 2.25489 7.66239 2.25489 4.92991 2.25489ZM9.03819 0.840878C8.44583 0.840878 7.87258 0.840878 7.28023 0.840878C7.03182 0.840878 6.9936 0.974636 6.9936 1.16572C6.9936 1.37591 7.07004 1.47145 7.28023 1.47145C8.44583 1.47145 9.61144 1.47145 10.7962 1.47145C10.9872 1.47145 11.0828 1.37591 11.0828 1.16572C11.0828 0.936419 11.0063 0.840878 10.7962 0.840878C10.1847 0.840878 9.61144 0.840878 9.03819 0.840878ZM9.03819 15.0574C8.57959 15.0574 8.19743 15.4205 8.19743 15.8791C8.19743 16.3186 8.56048 16.7008 9.01908 16.7199C9.47768 16.7199 9.85985 16.3568 9.87895 15.8982C9.85985 15.4396 9.49679 15.0574 9.03819 15.0574Z" fill="#129BE1"/>
</g>
<defs>
<clipPath id="clip0_311_1373">
<rect width="18" height="18" fill="white"/>
</clipPath>
</defs>
</svg>
