<svg width="28" height="28" viewBox="0 0 28 28" fill="none" xmlns="http://www.w3.org/2000/svg">
<g filter="url(#filter0_d_311_1368)">
<path d="M9.965 10.0925C11.045 12.215 12.785 13.9475 14.9075 15.035L16.5575 13.385C16.76 13.1825 17.06 13.115 17.3225 13.205C18.1625 13.4825 19.07 13.6325 20 13.6325C20.4125 13.6325 20.75 13.97 20.75 14.3825V17C20.75 17.4125 20.4125 17.75 20 17.75C12.9575 17.75 7.25 12.0425 7.25 5C7.25 4.5875 7.5875 4.25 8 4.25H10.625C11.0375 4.25 11.375 4.5875 11.375 5C11.375 5.9375 11.525 6.8375 11.8025 7.6775C11.885 7.94 11.825 8.2325 11.615 8.4425L9.965 10.0925Z" fill="#129BE1"/>
</g>
<defs>
<filter id="filter0_d_311_1368" x="-2" y="-2" width="32" height="32" filterUnits="userSpaceOnUse" color-interpolation-filters="sRGB">
<feFlood flood-opacity="0" result="BackgroundImageFix"/>
<feColorMatrix in="SourceAlpha" type="matrix" values="0 0 0 0 0 0 0 0 0 0 0 0 0 0 0 0 0 0 127 0" result="hardAlpha"/>
<feOffset dy="3"/>
<feGaussianBlur stdDeviation="3.5"/>
<feColorMatrix type="matrix" values="0 0 0 0 0.623438 0 0 0 0 0.731479 0 0 0 0 0.7875 0 0 0 1 0"/>
<feBlend mode="normal" in2="BackgroundImageFix" result="effect1_dropShadow_311_1368"/>
<feBlend mode="normal" in="SourceGraphic" in2="effect1_dropShadow_311_1368" result="shape"/>
</filter>
</defs>
</svg>
