<svg width="34" height="34" viewBox="0 0 34 34" fill="none" xmlns="http://www.w3.org/2000/svg">
<circle cx="17" cy="17" r="17" fill="white"/>
<path fill-rule="evenodd" clip-rule="evenodd" d="M17 22C18.1046 22 19 22.8954 19 24C19 25.1046 18.1046 26 17 26C15.8954 26 15 25.1046 15 24C15 22.8954 15.8954 22 17 22ZM17 15C18.1046 15 19 15.8954 19 17C19 18.1046 18.1046 19 17 19C15.8954 19 15 18.1046 15 17C15 15.8954 15.8954 15 17 15ZM19 10C19 8.89543 18.1046 8 17 8C15.8954 8 15 8.89543 15 10C15 11.1046 15.8954 12 17 12C18.1046 12 19 11.1046 19 10Z" fill="#040404"/>
</svg>
